<svg id="Layer_1" data-name="Layer 1" xmlns="http://www.w3.org/2000/svg" width="56" height="56" viewBox="0 0 56 56">
  <defs>
    <style>
      .cls-1 {
        fill: #00a0dc;
      }

      .cls-2 {
        fill: #005e93;
      }

      .cls-3 {
        fill: #9bdaf3;
      }
    </style>
  </defs>
  <title>56dp</title>
  <circle class="cls-1" cx="42" cy="30.5" r="2"/>
  <circle class="cls-1" cx="36" cy="30.5" r="2"/>
  <circle class="cls-1" cx="30" cy="30.5" r="2"/>
  <path class="cls-2" d="M48.86,37.78A11.48,11.48,0,0,0,52,30c0-7.2-7.16-13-16-13l-0.45,0C33.87,11.28,27.56,7,20,7,11.16,7,4,12.84,4,20a11.48,11.48,0,0,0,3.14,7.74l-2.4,7.05a1,1,0,0,0,1.35,1.24l8.48-3.77a19.19,19.19,0,0,0,5.43.79l0.45,0c1.67,5.74,8,10,15.55,10a19.19,19.19,0,0,0,5.43-.79l8.48,3.77a1,1,0,0,0,1.35-1.24ZM20,30.09a16.21,16.21,0,0,1-4.58-.66l-1.06-.31-1,.45-4.3,1.91L10,28.75l0.57-1.67L9.36,25.77A8.49,8.49,0,0,1,7,20c0-5.54,5.83-10,13-10,5.95,0,11,3.1,12.5,7.32C25.35,18.62,20,23.82,20,30c0,0,0,0,0,0h0Zm22.65,9.47-1-.45-1.06.31a16.21,16.21,0,0,1-4.58.66c-5.95,0-11-3.1-12.5-7.32a8.49,8.49,0,0,1-.31-1.06c0-.14-0.06-0.28-0.08-0.43s0-.24-0.05-0.36A7.81,7.81,0,0,1,23,30c0-4.73,4.27-8.7,10-9.76h0q0.69-.13,1.41-0.2h0.09C35,20,35.49,20,36,20h0c7.17,0,13,4.51,13,10a8.49,8.49,0,0,1-2.36,5.72l-1.19,1.31L46,38.75l0.93,2.72Z"/>
  <path class="cls-3" d="M32.5,17.32c-0.09-.24-0.19-0.48-0.3-0.72l0-.1q-0.17-.34-0.37-0.67l-0.05-.09a10.4,10.4,0,0,0-2.16-2.47l-0.18-.15-0.54-.41-0.3-.21L28,12.16l-0.38-.22-0.52-.29-0.53-.25L26,11.12c-0.26-.1-0.53-0.21-0.8-0.3l-0.42-.13L24,10.5l-0.45-.11-0.72-.14-0.45-.07-0.8-.1-0.39,0c-0.4,0-.81,0-1.23,0C12.83,10,7,14.51,7,20a8.49,8.49,0,0,0,2.36,5.72l1.19,1.31L10,28.75,9.05,31.47l4.3-1.91,1-.45,1.06,0.31a16.21,16.21,0,0,0,4.58.66h0s0,0,0,0C20,23.82,25.35,18.62,32.5,17.32Z"/>
</svg>
